<mxfile host="app.diagrams.net" modified="2020-12-17T02:03:07.181Z" agent="5.0 (Windows NT 10.0; Win64; x64) AppleWebKit/537.36 (KHTML, like Gecko) Chrome/87.0.4280.66 Safari/537.36" etag="HRAykDr4t31fnzWskxOZ" version="14.0.3" type="github">
  <diagram id="R2lEEEUBdFMjLlhIrx00" name="Page-1">
    <mxGraphModel dx="868" dy="366" grid="1" gridSize="10" guides="1" tooltips="1" connect="1" arrows="1" fold="1" page="1" pageScale="1" pageWidth="850" pageHeight="1100" math="0" shadow="0" extFonts="Permanent Marker^https://fonts.googleapis.com/css?family=Permanent+Marker">
      <root>
        <mxCell id="0" />
        <mxCell id="1" parent="0" />
        <mxCell id="iFOtsC4pIMYDBiGq_Q-d-28" value="" style="edgeStyle=orthogonalEdgeStyle;rounded=0;orthogonalLoop=1;jettySize=auto;html=1;" edge="1" parent="1" source="iFOtsC4pIMYDBiGq_Q-d-1" target="iFOtsC4pIMYDBiGq_Q-d-3">
          <mxGeometry relative="1" as="geometry" />
        </mxCell>
        <mxCell id="iFOtsC4pIMYDBiGq_Q-d-1" value="Front End" style="rounded=1;whiteSpace=wrap;html=1;" vertex="1" parent="1">
          <mxGeometry x="10" y="190" width="120" height="60" as="geometry" />
        </mxCell>
        <mxCell id="iFOtsC4pIMYDBiGq_Q-d-27" style="edgeStyle=orthogonalEdgeStyle;rounded=0;orthogonalLoop=1;jettySize=auto;html=1;entryX=0;entryY=0.5;entryDx=0;entryDy=0;entryPerimeter=0;" edge="1" parent="1" source="iFOtsC4pIMYDBiGq_Q-d-2" target="iFOtsC4pIMYDBiGq_Q-d-5">
          <mxGeometry relative="1" as="geometry" />
        </mxCell>
        <mxCell id="iFOtsC4pIMYDBiGq_Q-d-2" value="" style="rounded=0;whiteSpace=wrap;html=1;" vertex="1" parent="1">
          <mxGeometry x="200" y="50" width="470" height="90" as="geometry" />
        </mxCell>
        <mxCell id="iFOtsC4pIMYDBiGq_Q-d-26" style="edgeStyle=orthogonalEdgeStyle;rounded=0;orthogonalLoop=1;jettySize=auto;html=1;entryX=0;entryY=0.5;entryDx=0;entryDy=0;entryPerimeter=0;" edge="1" parent="1" source="iFOtsC4pIMYDBiGq_Q-d-3" target="iFOtsC4pIMYDBiGq_Q-d-22">
          <mxGeometry relative="1" as="geometry" />
        </mxCell>
        <mxCell id="iFOtsC4pIMYDBiGq_Q-d-3" value="" style="rounded=0;whiteSpace=wrap;html=1;" vertex="1" parent="1">
          <mxGeometry x="200" y="175" width="520" height="175" as="geometry" />
        </mxCell>
        <mxCell id="iFOtsC4pIMYDBiGq_Q-d-24" style="edgeStyle=orthogonalEdgeStyle;rounded=0;orthogonalLoop=1;jettySize=auto;html=1;entryX=0;entryY=0.5;entryDx=0;entryDy=0;" edge="1" parent="1" source="iFOtsC4pIMYDBiGq_Q-d-4" target="iFOtsC4pIMYDBiGq_Q-d-23">
          <mxGeometry relative="1" as="geometry" />
        </mxCell>
        <mxCell id="iFOtsC4pIMYDBiGq_Q-d-4" value="Search Service" style="rounded=0;whiteSpace=wrap;html=1;" vertex="1" parent="1">
          <mxGeometry x="220" y="380" width="120" height="60" as="geometry" />
        </mxCell>
        <mxCell id="iFOtsC4pIMYDBiGq_Q-d-5" value="MY SQL" style="shape=cylinder3;whiteSpace=wrap;html=1;boundedLbl=1;backgroundOutline=1;size=15;" vertex="1" parent="1">
          <mxGeometry x="720" y="55" width="110" height="75" as="geometry" />
        </mxCell>
        <mxCell id="iFOtsC4pIMYDBiGq_Q-d-11" value="Login" style="rounded=0;whiteSpace=wrap;html=1;" vertex="1" parent="1">
          <mxGeometry x="350" y="62.5" width="300" height="57.5" as="geometry" />
        </mxCell>
        <mxCell id="iFOtsC4pIMYDBiGq_Q-d-12" value="Register" style="rounded=0;whiteSpace=wrap;html=1;" vertex="1" parent="1">
          <mxGeometry x="230" y="62.5" width="90" height="60" as="geometry" />
        </mxCell>
        <mxCell id="iFOtsC4pIMYDBiGq_Q-d-13" value="User Service" style="text;html=1;align=center;verticalAlign=middle;resizable=0;points=[];autosize=1;" vertex="1" parent="1">
          <mxGeometry x="430" y="20" width="80" height="20" as="geometry" />
        </mxCell>
        <mxCell id="iFOtsC4pIMYDBiGq_Q-d-15" value="JWT&amp;nbsp;&lt;br&gt;Authentication(Token is generated)" style="rounded=0;whiteSpace=wrap;html=1;" vertex="1" parent="1">
          <mxGeometry x="520" y="70" width="120" height="40" as="geometry" />
        </mxCell>
        <mxCell id="iFOtsC4pIMYDBiGq_Q-d-17" value="Favourites" style="rounded=0;whiteSpace=wrap;html=1;" vertex="1" parent="1">
          <mxGeometry x="220" y="300" width="150" height="30" as="geometry" />
        </mxCell>
        <mxCell id="iFOtsC4pIMYDBiGq_Q-d-18" value="Dahboard Service" style="text;html=1;align=center;verticalAlign=middle;resizable=0;points=[];autosize=1;" vertex="1" parent="1">
          <mxGeometry x="415" y="150" width="110" height="20" as="geometry" />
        </mxCell>
        <mxCell id="iFOtsC4pIMYDBiGq_Q-d-22" value="MONGO DB" style="shape=cylinder3;whiteSpace=wrap;html=1;boundedLbl=1;backgroundOutline=1;size=15;" vertex="1" parent="1">
          <mxGeometry x="750" y="210" width="90" height="80" as="geometry" />
        </mxCell>
        <mxCell id="iFOtsC4pIMYDBiGq_Q-d-31" style="edgeStyle=orthogonalEdgeStyle;rounded=0;orthogonalLoop=1;jettySize=auto;html=1;" edge="1" parent="1" source="iFOtsC4pIMYDBiGq_Q-d-23">
          <mxGeometry relative="1" as="geometry">
            <mxPoint x="700" y="400" as="targetPoint" />
          </mxGeometry>
        </mxCell>
        <mxCell id="iFOtsC4pIMYDBiGq_Q-d-23" value="External API" style="ellipse;whiteSpace=wrap;html=1;" vertex="1" parent="1">
          <mxGeometry x="720" y="370" width="120" height="80" as="geometry" />
        </mxCell>
        <mxCell id="iFOtsC4pIMYDBiGq_Q-d-29" value="" style="endArrow=classic;html=1;entryX=-0.006;entryY=0.622;entryDx=0;entryDy=0;entryPerimeter=0;" edge="1" parent="1" target="iFOtsC4pIMYDBiGq_Q-d-2">
          <mxGeometry width="50" height="50" relative="1" as="geometry">
            <mxPoint x="120" y="190" as="sourcePoint" />
            <mxPoint x="170" y="140" as="targetPoint" />
          </mxGeometry>
        </mxCell>
        <mxCell id="iFOtsC4pIMYDBiGq_Q-d-30" value="" style="endArrow=classic;html=1;entryX=0;entryY=0.75;entryDx=0;entryDy=0;exitX=0.833;exitY=1.033;exitDx=0;exitDy=0;exitPerimeter=0;" edge="1" parent="1" source="iFOtsC4pIMYDBiGq_Q-d-1" target="iFOtsC4pIMYDBiGq_Q-d-4">
          <mxGeometry width="50" height="50" relative="1" as="geometry">
            <mxPoint x="140" y="355" as="sourcePoint" />
            <mxPoint x="190" y="305" as="targetPoint" />
            <Array as="points" />
          </mxGeometry>
        </mxCell>
        <mxCell id="iFOtsC4pIMYDBiGq_Q-d-32" value="" style="rounded=0;whiteSpace=wrap;html=1;" vertex="1" parent="1">
          <mxGeometry x="220" y="190" width="150" height="90" as="geometry" />
        </mxCell>
        <mxCell id="iFOtsC4pIMYDBiGq_Q-d-43" value="" style="edgeStyle=orthogonalEdgeStyle;rounded=0;orthogonalLoop=1;jettySize=auto;html=1;" edge="1" parent="1" source="iFOtsC4pIMYDBiGq_Q-d-33" target="iFOtsC4pIMYDBiGq_Q-d-17">
          <mxGeometry relative="1" as="geometry" />
        </mxCell>
        <mxCell id="iFOtsC4pIMYDBiGq_Q-d-33" value="Add to Favourite" style="rounded=0;whiteSpace=wrap;html=1;" vertex="1" parent="1">
          <mxGeometry x="235" y="250" width="115" height="20" as="geometry" />
        </mxCell>
        <mxCell id="iFOtsC4pIMYDBiGq_Q-d-34" value="Username" style="rounded=0;whiteSpace=wrap;html=1;" vertex="1" parent="1">
          <mxGeometry x="235" y="200" width="110" height="20" as="geometry" />
        </mxCell>
        <mxCell id="iFOtsC4pIMYDBiGq_Q-d-35" value="" style="rounded=0;whiteSpace=wrap;html=1;" vertex="1" parent="1">
          <mxGeometry x="410" y="190" width="130" height="90" as="geometry" />
        </mxCell>
        <mxCell id="iFOtsC4pIMYDBiGq_Q-d-36" value="User Name" style="rounded=0;whiteSpace=wrap;html=1;" vertex="1" parent="1">
          <mxGeometry x="420" y="200" width="110" height="20" as="geometry" />
        </mxCell>
        <mxCell id="iFOtsC4pIMYDBiGq_Q-d-44" value="" style="edgeStyle=orthogonalEdgeStyle;rounded=0;orthogonalLoop=1;jettySize=auto;html=1;" edge="1" parent="1" source="iFOtsC4pIMYDBiGq_Q-d-37" target="iFOtsC4pIMYDBiGq_Q-d-38">
          <mxGeometry relative="1" as="geometry" />
        </mxCell>
        <mxCell id="iFOtsC4pIMYDBiGq_Q-d-37" value="Add to Favourite" style="rounded=0;whiteSpace=wrap;html=1;" vertex="1" parent="1">
          <mxGeometry x="420" y="247.5" width="110" height="20" as="geometry" />
        </mxCell>
        <mxCell id="iFOtsC4pIMYDBiGq_Q-d-38" value="Favourites" style="rounded=0;whiteSpace=wrap;html=1;" vertex="1" parent="1">
          <mxGeometry x="405" y="300" width="145" height="35" as="geometry" />
        </mxCell>
        <mxCell id="iFOtsC4pIMYDBiGq_Q-d-39" value="" style="rounded=0;whiteSpace=wrap;html=1;" vertex="1" parent="1">
          <mxGeometry x="570" y="190" width="120" height="90" as="geometry" />
        </mxCell>
        <mxCell id="iFOtsC4pIMYDBiGq_Q-d-40" value="User name" style="rounded=0;whiteSpace=wrap;html=1;" vertex="1" parent="1">
          <mxGeometry x="580" y="200" width="100" height="20" as="geometry" />
        </mxCell>
        <mxCell id="iFOtsC4pIMYDBiGq_Q-d-45" value="" style="edgeStyle=orthogonalEdgeStyle;rounded=0;orthogonalLoop=1;jettySize=auto;html=1;" edge="1" parent="1" source="iFOtsC4pIMYDBiGq_Q-d-41" target="iFOtsC4pIMYDBiGq_Q-d-42">
          <mxGeometry relative="1" as="geometry" />
        </mxCell>
        <mxCell id="iFOtsC4pIMYDBiGq_Q-d-41" value="Add to Favouries" style="rounded=0;whiteSpace=wrap;html=1;" vertex="1" parent="1">
          <mxGeometry x="580" y="247.5" width="100" height="22.5" as="geometry" />
        </mxCell>
        <mxCell id="iFOtsC4pIMYDBiGq_Q-d-42" value="Favorites" style="rounded=0;whiteSpace=wrap;html=1;" vertex="1" parent="1">
          <mxGeometry x="580" y="300" width="120" height="30" as="geometry" />
        </mxCell>
      </root>
    </mxGraphModel>
  </diagram>
</mxfile>
